# xmcd
#
# Track frame offsets:
#	150
#	10977
#	25070
#	44886
#	61105
#	82804
#	98942
#	117251
#	138575
#	154917
#	171275
#	193363
#	207954
#	226095
#	241414
#	261175
#	275372
#
# Disc length: 3977 seconds
#
# Revision: 0
# Processed by: cddbd v1.5.2PL0 Copyright (c) Steve Scherf et al.
# Submitted via: dBpowerAMP V4.0
#
DISCID=ed0f8711
DTITLE=Glendon Garner - Love Songs
DYEAR=2011
DGENRE=Country
TTITLE0=Smoke Gets In Your Eyes
TTITLE1=Amanda
TTITLE2=Of All The Things
TTITLE3=Faraway
TTITLE4=The Wind Beneath My Wings
TTITLE5=Blue Moon
TTITLE6=Send In The Clowns
TTITLE7=Lonly To Long
TTITLE8=Only You
TTITLE9=Unchained Melody
TTITLE10=Everything That Glitters(is no
TTITLE11=For All These Years
TTITLE12=You Don't Even Know Who I Am
TTITLE13=Holdin' Her and Lovin' You
TTITLE14=Remember When
TTITLE15=I Can't Help Fallin' In Love(w
TTITLE16=Always On My Mind
EXTD=Glendon Garner
EXTT0=
EXTT1=
EXTT2=
EXTT3=
EXTT4=
EXTT5=
EXTT6=
EXTT7=
EXTT8=
EXTT9=
EXTT10=
EXTT11=
EXTT12=
EXTT13=
EXTT14=
EXTT15=
EXTT16=
PLAYORDER=
